# xmcd
#
# Track frame offsets:
#	150
#	15726
#	28254
#	41569
#	55865
#	70268
#	84890
#	99045
#	115923
#	127061
#	141432
#	155698
#
# Disc length: 2252 seconds
#
# Revision: 1
# Processed by: cddbd v1.5.2PL0 Copyright (c) Steve Scherf et al.
# Submitted via: audiograbber 1.83.01
#
DISCID=9f08ca0c
DTITLE=Tim Lothar and Peter Nande - Two For The Road
DYEAR=2009
DGENRE=Blues
TTITLE0=Slow Train
TTITLE1=Can't Get That Stuff No More
TTITLE2=Ain't Too Old
TTITLE3=Baby Blue
TTITLE4=Late Again
TTITLE5=You Got To Choose
TTITLE6=Done Left You
TTITLE7=Rough Ride
TTITLE8=Still On Hold
TTITLE9=Poor Boy
TTITLE10=Confessions
TTITLE11=Pa-ta-nin' Ta' Jook-jernts
EXTD=
EXTT0=
EXTT1=
EXTT2=
EXTT3=
EXTT4=
EXTT5=
EXTT6=
EXTT7=
EXTT8=
EXTT9=
EXTT10=
EXTT11=
PLAYORDER=
